<?xml version="1.0" encoding="UTF-8" standalone="no"?>
<svg
   version="1.0"
   id="svg3641"
   height="360.8295"
   width="853.32581"
   style="enable-background:new"
   xml:space="preserve"
   sodipodi:docname="tmp1neq5s4a.svg"
   xmlns:inkscape="http://www.inkscape.org/namespaces/inkscape"
   xmlns:sodipodi="http://sodipodi.sourceforge.net/DTD/sodipodi-0.dtd"
   xmlns="http://www.w3.org/2000/svg"
   xmlns:svg="http://www.w3.org/2000/svg"
   xmlns:rdf="http://www.w3.org/1999/02/22-rdf-syntax-ns#"
   xmlns:cc="http://creativecommons.org/ns#"
   xmlns:dc="http://purl.org/dc/elements/1.1/"><sodipodi:namedview
     id="namedview3"
     pagecolor="#ffffff"
     bordercolor="#000000"
     borderopacity="0.25"
     inkscape:showpageshadow="2"
     inkscape:pageopacity="0.0"
     inkscape:pagecheckerboard="0"
     inkscape:deskcolor="#d1d1d1" /><defs
     id="arrows"><marker
       id="RazorWire"
       refX="0"
       refY="0"
       orient="auto"
       style="overflow:visible"><path
         id="path5527"
         style="fill:#34ff00;fill-opacity:1;fill-rule:evenodd;stroke:#34ff00;stroke-width:0.0853333pt;stroke-opacity:1"
         d="M 0.01939394,-0.63154356 V 0.59512311 L -6.620606,2.5684564 H 9.112727 L 2.979394,0.59512311 V -0.63154356 L 9.1660604,-2.4715436 H -6.5939394 Z" /></marker><marker
       orient="auto"
       refY="0"
       refX="0"
       id="Scissors"
       style="overflow:visible"><path
         id="schere"
         d="M 9.6958781,-3.8465086 C 8.6612106,-5.0954641 6.7944114,-5.0515514 5.3998462,-4.5149583 l -8.7598983,3.2830964 c -2.5475128,-1.3938277 -5.0648397,-0.9947063 -5.0648397,-1.6733731 0,-0.5304708 0.4871106,-0.4142103 0.4141939,-1.795407 -0.070011,-1.3261618 -1.4544823,-2.3072849 -2.7630921,-2.2204198 -1.309089,-0.00784 -2.666068,0.9953721 -2.677697,2.3787319 -0.09752,1.3934788 1.074356,2.6876689 2.460548,2.7789137 1.6238303,0.2417724 4.4994755,-0.7419271 5.848475,1.67558405 C -6.1475677,1.7663094 -7.9307567,1.7714497 -9.5430087,1.6786429 -10.881541,1.6015922 -12.489242,1.9852006 -13.1277,3.3008941 c -0.616925,1.2608919 -0.01195,3.0555757 1.404532,3.4415061 1.429537,0.5246162 3.3927135,-0.1383584 3.7326637,-1.7821058 0.2620357,-1.2670112 -0.635057,-1.8623546 -0.2906746,-2.3222973 0.2598544,-0.3470506 1.910166,-0.1459682 4.8502457,-1.4664793 L 6.0547699,4.5152734 C 7.2533508,4.849885 8.7179397,4.8386822 9.7796729,3.6601188 L -0.05508366,-0.0573037 Z M -9.8324436,-5.8737129 c 1.3808629,0.7709865 1.2680951,2.8624749 -0.1668557,3.2675082 -1.2976187,0.4519051 -2.9557617,-0.8095674 -2.5420567,-2.2159624 0.242291,-1.1539754 1.763613,-1.5793408 2.7089124,-1.0515458 z m 0.060015,8.5518559 c 1.4408854,0.5321225 1.1962058,2.9700647 -0.2690354,3.2977163 -0.971797,0.3374284 -2.36112,-0.1480508 -2.45941,-1.2929487 -0.18945,-1.3920587 1.446491,-2.6497581 2.7284454,-2.0047676 z"
         style="fill:#34ff00;fill-opacity:1;stroke:#34ff00;stroke-width:1.06667;stroke-opacity:1" /></marker><marker
       orient="auto"
       refY="0"
       refX="0"
       id="Legs"
       style="overflow:visible"><g
         id="g5494"
         transform="scale(-0.7)"
         style="fill:#34ff00;fill-opacity:1;stroke:#34ff00;stroke-opacity:1"><g
           id="g5496"
           transform="matrix(0,-1,-1,0,22.089195,22.734837)"
           style="fill:#34ff00;fill-opacity:1;stroke:#34ff00;stroke-opacity:1"><path
             id="path5498"
             d="m 22.636,22.053717 c -7.370828,5.035901 -2.61816,7.047301 -6.230476,14.339451"
             style="fill:#34ff00;fill-opacity:1;fill-rule:evenodd;stroke:#34ff00;stroke-width:1.06667pt;stroke-opacity:1" /><path
             id="path5500"
             d="m 22.824651,21.917995 c -1.45121,8.904025 3.77181,9.354602 4.805377,14.746622"
             style="fill:#34ff00;fill-opacity:1;fill-rule:evenodd;stroke:#34ff00;stroke-width:1.06667pt;stroke-opacity:1" /></g><path
           id="path5502"
           d="m -15.029408,-7.180663 -0.983646,4.3129418 4.226935,-1.304608 z"
           style="fill:#34ff00;fill-opacity:1;fill-rule:evenodd;stroke:#34ff00;stroke-width:1.06667pt;stroke-opacity:1" /><path
           id="path5504"
           d="m -16.230058,4.860537 1.999069,3.9462538 2.417999,-3.7043786 z"
           style="fill:#34ff00;fill-opacity:1;fill-rule:evenodd;stroke:#34ff00;stroke-width:1.06667pt;stroke-opacity:1" /></g></marker><linearGradient
       id="linearGradient5477"><stop
         style="stop-color:#57e307;stop-opacity:1;"
         offset="0"
         id="stop5479" /></linearGradient><marker
       style="overflow:visible"
       id="Arrow1Lend"
       refX="0"
       refY="0"
       orient="auto"><path
         style="fill-rule:evenodd;stroke:#000000;stroke-width:0.853333pt;marker-start:none"
         d="M -10.666667,0 -14.933333,4.2666667 0,0 -14.933333,-4.2666667 Z"
         id="path3104" /></marker><marker
       style="overflow:visible"
       id="Arrow1Lstart"
       refX="0"
       refY="0"
       orient="auto"><path
         style="fill-rule:evenodd;stroke:#000000;stroke-width:0.853333pt;marker-start:none"
         d="M 10.666667,0 14.933333,-4.2666667 0,0 14.933333,4.2666667 Z"
         id="path3282" /></marker><marker
       style="overflow:visible"
       id="Arrow1Lstart-7"
       refX="0"
       refY="0"
       orient="auto"><path
         style="fill-rule:evenodd;stroke:#000000;stroke-width:0.853333pt;marker-start:none"
         d="M 10.666667,0 14.933333,-4.2666667 0,0 14.933333,4.2666667 Z"
         id="path3282-4" /></marker><marker
       style="overflow:visible"
       id="Arrow1Lend-6"
       refX="0"
       refY="0"
       orient="auto"><path
         style="fill-rule:evenodd;stroke:#000000;stroke-width:0.853333pt;marker-start:none"
         d="M -10.666667,0 -14.933333,4.2666667 0,0 -14.933333,-4.2666667 Z"
         id="path3104-0" /></marker></defs><metadata
     id="metadata"><rdf:RDF><cc:Work
         rdf:about=""><dc:format>image/svg+xml</dc:format><dc:type
           rdf:resource="http://purl.org/dc/dcmitype/StillImage" /><dc:creator><cc:Agent><dc:title>Matthias Kerk</dc:title></cc:Agent></dc:creator><dc:rights><cc:Agent><dc:title /></cc:Agent></dc:rights><dc:publisher><cc:Agent><dc:title>Matthias Kerk</dc:title></cc:Agent></dc:publisher><dc:title>Schlauchbootslalom Parcours</dc:title><cc:license
           rdf:resource="http://creativecommons.org/licenses/by-nc-sa/4.0/" /><dc:source>https://github.com/Motorbootslalom/Parcours</dc:source></cc:Work><cc:License
         rdf:about="http://creativecommons.org/licenses/by-nc-sa/4.0/"><cc:permits
           rdf:resource="http://creativecommons.org/ns#Reproduction" /><cc:permits
           rdf:resource="http://creativecommons.org/ns#Distribution" /><cc:requires
           rdf:resource="http://creativecommons.org/ns#Notice" /><cc:requires
           rdf:resource="http://creativecommons.org/ns#Attribution" /><cc:prohibits
           rdf:resource="http://creativecommons.org/ns#CommercialUse" /><cc:permits
           rdf:resource="http://creativecommons.org/ns#DerivativeWorks" /><cc:requires
           rdf:resource="http://creativecommons.org/ns#ShareAlike" /></cc:License></rdf:RDF></metadata><g
     transform="translate(-215.4445,-435.39547)"
     style="display:inline"
     id="Parcours"><defs
       id="defs2076" /><g
       id="g1" /><g
       id="layer6"
       style="display:inline"><g
         transform="translate(18.947957,85.045973)"
         id="Zeitnahme"
         style="display:inline"><g
           id="g13156"
           transform="translate(-177.63776,-94.488192)"><path
             style="fill:#000000;fill-opacity:1;stroke:#000000;stroke-width:1.76224"
             d="m 411.08737,559.37008 c 0,-3.68455 -2.98554,-6.67793 -6.67793,-6.67793 -3.6831,0 -6.67794,2.98671 -6.67794,6.67793 0,3.68455 2.9874,6.67793 6.67794,6.67793 3.68495,0 6.67793,-2.9867 6.67793,-6.67793 z"
             id="path13158" /></g><g
           id="g13172"
           transform="translate(-177.63776,67.661941)"><path
             style="fill:#000000;fill-opacity:1;stroke:#000000;stroke-width:1.76224"
             d="m 411.08737,559.37008 c 0,-3.68455 -2.98554,-6.67793 -6.67793,-6.67793 -3.6831,0 -6.67794,2.98671 -6.67794,6.67793 0,3.68455 2.9874,6.67793 6.67794,6.67793 3.68495,0 6.67793,-2.9867 6.67793,-6.67793 z"
             id="path13174" /></g><path
           style="fill:none;stroke:#000000;stroke-width:1.22807;stroke-linecap:round;stroke-linejoin:miter;stroke-miterlimit:4;stroke-dasharray:1.22807, 3.68421;stroke-dashoffset:0;stroke-opacity:1"
           d="m 226.88557,466.31536 c 0,23.37939 0,46.75876 0,70.13813 0,19.9914 0,67.88504 0,87.2713"
           id="path14169" /></g><g
         transform="translate(113.43616,157.27691)"
         id="Tor1"
         style="display:inline;fill:#ff6600"><path
           style="fill:#ff6600;stroke:#000000;stroke-width:1.05575"
           d="m 309.39338,536.69343 c 0,-3.88326 -3.14878,-7.0317 -7.03118,-7.0317 -3.88134,0 -7.03118,3.14844 -7.03118,7.0317 0,3.88327 3.14984,7.03066 7.03118,7.03066 3.8824,0 7.03118,-3.14739 7.03118,-7.03066 z"
           id="Tor1_innen" opacity="0.2" /><path
           style="fill:#ff6600;stroke:#000000;stroke-width:1.05575"
           d="m 309.39338,597.16588 c 0,-3.88329 -3.14879,-7.0317 -7.03118,-7.0317 -3.88134,0 -7.03118,3.14841 -7.03118,7.0317 0,3.88327 3.14984,7.03065 7.03118,7.03065 3.88239,0 7.03118,-3.14738 7.03118,-7.03065 z"
           id="Tor1_aussen" /></g><g
         transform="translate(226.82208,-31.699413)"
         id="Tor2"
         style="display:inline;fill:#ff6600"><path
           style="fill:#ff6600;stroke:#000000;stroke-width:1.05575"
           d="m 328.29102,536.69343 c 0,-3.88326 -3.14878,-7.0317 -7.03118,-7.0317 -3.88133,0 -7.03118,3.14844 -7.03118,7.0317 0,3.88327 3.14985,7.03066 7.03118,7.03066 3.8824,0 7.03118,-3.14739 7.03118,-7.03066 z"
           id="Tor2_aussen" opacity="0.2" /><path
           style="fill:#ff6600;stroke:#000000;stroke-width:1.05575"
           d="m 328.29102,597.16588 c 0,-3.88329 -3.14879,-7.0317 -7.03118,-7.0317 -3.88133,0 -7.03118,3.14841 -7.03118,7.0317 0,3.88327 3.14985,7.03065 7.03118,7.03065 3.88239,0 7.03118,-3.14738 7.03118,-7.03065 z"
           id="Tor2_innen" /></g><g
         transform="translate(340.20779,157.27691)"
         id="Tor3"
         style="display:inline;fill:#ff6600"><path
           style="fill:#ff6600;stroke:#000000;stroke-width:1.05575"
           d="m 347.18865,536.69343 c 0,-3.88326 -3.14878,-7.0317 -7.03118,-7.0317 -3.88133,0 -7.03118,3.14844 -7.03118,7.0317 0,3.88327 3.14985,7.03066 7.03118,7.03066 3.8824,0 7.03118,-3.14739 7.03118,-7.03066 z"
           id="Tor3_innen" opacity="0.2" /><path
           style="fill:#ff6600;stroke:#000000;stroke-width:1.05575"
           d="m 347.18865,597.16588 c 0,-3.88329 -3.14879,-7.0317 -7.03118,-7.0317 -3.88133,0 -7.03118,3.14841 -7.03118,7.0317 0,3.88327 3.14985,7.03065 7.03118,7.03065 3.88239,0 7.03118,-3.14738 7.03118,-7.03065 z"
           id="Tor3_aussen" /></g><g
         transform="translate(453.59349,-31.699413)"
         id="Tor4" opacity="0.2"
         style="display:inline;fill:#ff6600"><path
           style="fill:#ff6600;stroke:#000000;stroke-width:1.05575"
           d="m 366.08629,536.69343 c 0,-3.88326 -3.14878,-7.0317 -7.03118,-7.0317 -3.88133,0 -7.03117,3.14844 -7.03117,7.0317 0,3.88327 3.14984,7.03066 7.03117,7.03066 3.8824,0 7.03118,-3.14739 7.03118,-7.03066 z"
           id="Tor4_aussen" /><path
           style="fill:#ff6600;stroke:#000000;stroke-width:1.05575"
           d="m 366.08629,597.16588 c 0,-3.88329 -3.14879,-7.0317 -7.03118,-7.0317 -3.88133,0 -7.03117,3.14841 -7.03117,7.0317 0,3.88327 3.14984,7.03065 7.03117,7.03065 3.88239,0 7.03118,-3.14738 7.03118,-7.03065 z"
           id="Tor4_innen" /></g><g
         transform="translate(566.97931,104.36352)"
         id="Tor5" opacity="0.2"
         style="display:inline;fill:#ff6600"><path
           style="fill:#ff6600;stroke:#000000;stroke-width:1.05575"
           d="m 384.98394,536.69343 c 0,-3.88326 -3.14878,-7.0317 -7.03118,-7.0317 -3.88134,0 -7.03118,3.14844 -7.03118,7.0317 0,3.88327 3.14984,7.03066 7.03118,7.03066 3.8824,0 7.03118,-3.14739 7.03118,-7.03066 z"
           id="Tor5_oben" /><path
           style="fill:#ff6600;stroke:#000000;stroke-width:1.05575"
           d="m 384.98394,597.16588 c 0,-3.88329 -3.14879,-7.0317 -7.03118,-7.0317 -3.88134,0 -7.03118,3.14841 -7.03118,7.0317 0,3.88327 3.14984,7.03065 7.03118,7.03065 3.88239,0 7.03118,-3.14738 7.03118,-7.03065 z"
           id="Tor5_unten" /></g><g
         transform="translate(18.947957,138.37931)"
         id="Schikane" opacity="0.2"
         style="display:inline"><g
           style="fill:none"
           id="Ring"><ellipse
             id="path8826"
             style="fill:none;stroke:#ff0000;stroke-width:4.82133;stroke-linecap:butt;stroke-linejoin:round;stroke-miterlimit:4;stroke-dasharray:9.64267, 4.82133;stroke-dashoffset:0;stroke-opacity:1"
             cx="359.0553"
             cy="404.409"
             rx="8.9280024"
             ry="8.9280043" /><ellipse
             style="display:inline;fill:none;stroke:#000000;stroke-width:0.229294;stroke-linecap:round;stroke-linejoin:round;stroke-miterlimit:4;stroke-dasharray:none;stroke-dashoffset:0;stroke-opacity:1"
             id="path3620"
             cx="359.05527"
             cy="404.40933"
             rx="6.4995213"
             ry="6.4995222" /><ellipse
             style="display:inline;fill:none;stroke:#000000;stroke-width:0.393071;stroke-linecap:round;stroke-linejoin:round;stroke-miterlimit:4;stroke-dasharray:none;stroke-dashoffset:0;stroke-opacity:1"
             id="path2733"
             cx="359.05527"
             cy="404.4093"
             rx="11.141887"
             ry="11.141891" /></g></g><g
         transform="translate(-40.520309,61.513771)"
         id="Start+Ziel"
         style="display:inline"><path
           style="fill:#ffff00;stroke:#000000;stroke-width:1.05575"
           d="m 309.39338,536.69343 c 0,-3.88326 -3.14878,-7.0317 -7.03118,-7.0317 -3.88134,0 -7.03118,3.14844 -7.03118,7.0317 0,3.88327 3.14984,7.03066 7.03118,7.03066 3.8824,0 7.03118,-3.14739 7.03118,-7.03066 z"
           id="Tor1_innen-7" opacity="0.2" /><path
           style="fill:#ffff00;stroke:#000000;stroke-width:1.05575"
           d="m 309.39338,597.16588 c 0,-3.88329 -3.14879,-7.0317 -7.03118,-7.0317 -3.88134,0 -7.03118,3.14841 -7.03118,7.0317 0,3.88327 3.14984,7.03065 7.03118,7.03065 3.88239,0 7.03118,-3.14738 7.03118,-7.03065 z"
           id="Tor1_aussen-3" /></g></g></g><g
     transform="translate(-215.4445,-435.39547)"
     style="display:inline"
     id="ParcoursLabel"><defs
       id="defs2832" /><g
       id="g3113"
       style="display:inline"><text
         xml:space="preserve"
         style="font-style:normal;font-weight:normal;font-size:12.8px;line-height:0%;font-family:'Arial Black';display:inline;fill:#000000;fill-opacity:1;stroke:none;stroke-width:1.06667"
         x="373.69058"
         y="547.37"
         id="text3034"><tspan
           id="tspan3032"
           x="373.69058"
           y="547.37"
           style="font-size:12.8px;line-height:1.25;stroke-width:1.06667">6</tspan></text><text
         xml:space="preserve"
         style="font-style:normal;font-weight:normal;font-size:12.8px;line-height:0%;font-family:'Arial Black';display:inline;fill:#000000;fill-opacity:1;stroke:none;stroke-width:1.06667"
         x="412.12961"
         y="759.10162"
         id="text3038"><tspan
           id="tspan3036"
           x="412.12961"
           y="759.10162"
           style="font-size:12.8px;line-height:1.25;stroke-width:1.06667">1</tspan></text><text
         xml:space="preserve"
         style="font-style:normal;font-weight:normal;font-size:12.8px;line-height:0%;font-family:'Arial Black';display:inline;fill:#000000;fill-opacity:1;stroke:none;stroke-width:1.06667"
         x="808.383"
         y="570.12531"
         id="text3042"><tspan
           id="tspan3040"
           x="808.383"
           y="570.12531"
           style="font-size:12.8px;line-height:1.25;stroke-width:1.06667">4</tspan></text><text
         xml:space="preserve"
         style="font-style:normal;font-weight:normal;font-size:12.8px;line-height:0%;font-family:'Arial Black';display:inline;fill:#000000;fill-opacity:1;stroke:none;stroke-width:1.06667"
         x="940.70392"
         y="706.03198"
         id="text3046"><tspan
           id="tspan3044"
           x="940.70392"
           y="706.03198"
           style="font-size:12.8px;line-height:1.25;stroke-width:1.06667">5</tspan></text><text
         xml:space="preserve"
         style="font-style:normal;font-weight:normal;font-size:12.8px;line-height:0%;font-family:'Arial Black';display:inline;fill:#000000;fill-opacity:1;stroke:none;stroke-width:1.06667"
         x="676.13092"
         y="759.0235"
         id="text3050"><tspan
           id="tspan3048"
           x="676.13092"
           y="759.0235"
           style="font-size:12.8px;line-height:1.25;stroke-width:1.06667">3</tspan></text><g
         transform="translate(579.9631,-35.510987)"
         id="g3068" opacity="0.2"
         style="display:inline"><path
           id="path3052"
           d="m 411.08738,540.47244 c 0,-3.68456 -2.98553,-6.67793 -6.67793,-6.67793 -3.6831,0 -6.67794,2.98671 -6.67794,6.67793 0,3.68455 2.9874,6.67793 6.67794,6.67793 3.68495,0 6.67793,-2.9867 6.67793,-6.67793 z"
           style="fill:#0000ff;fill-opacity:1;stroke:#0000ff;stroke-width:1.76224" /><g
           style="stroke:#0000ff"
           id="g3062"><path
             id="path3054"
             d="m 407.51083,519.18039 c 0.37208,-0.16084 0.7452,-0.32493 1.11729,-0.43829 0.37209,-0.11443 0.74418,-0.18135 1.1173,-0.18135 0.37208,0 0.74418,0.0626 1.11729,0.18135 0.3721,0.11336 0.74418,0.27313 1.11628,0.43829 0.36901,0.15978 0.7452,0.32063 1.1173,0.43399 0.36901,0.11443 0.7452,0.18135 1.11729,0.18135 0.36799,0 0.7452,-0.0637 1.1173,-0.18135 0.36799,-0.11336 0.74418,-0.27421 1.11729,-0.43399"
             style="fill:none;stroke:#0000ff;stroke-width:1.05194;stroke-linecap:round;stroke-linejoin:round" /><path
             id="path3056"
             d="m 407.64253,518.60117 -2.69974,17.30027 v 0.25813 0"
             style="fill:none;stroke:#0000ff;stroke-width:1.06667;stroke-linecap:round;stroke-linejoin:round" /><path
             id="path3058"
             d="m 406.24626,527.52171 c 0.384,-0.15787 0.77547,-0.3168 1.16267,-0.4288 0.38293,-0.11307 0.77546,-0.1792 1.16266,-0.1792 0.38294,0 0.7744,0.0619 1.16267,0.1792 0.3872,0.112 0.7744,0.27093 1.16267,0.4288 0.3872,0.15893 0.7744,0.3168 1.1616,0.43306 0.38826,0.1088 0.77546,0.17494 1.16266,0.17494 0.38827,0 0.77547,-0.0619 1.16267,-0.17494 0.3872,-0.112 0.77547,-0.27093 1.16267,-0.43306"
             style="fill:none;stroke:#0000ff;stroke-width:1.06667;stroke-linecap:round;stroke-linejoin:round" /><path
             id="path3060"
             d="m 416.60402,519.31034 -1.03945,7.96852 v 0.11982 0"
             style="fill:none;stroke:#0000ff;stroke-width:1.0241;stroke-linecap:round" /></g><text
           xml:space="preserve"
           style="font-style:normal;font-weight:normal;font-size:12.8px;line-height:0%;font-family:'Arial Black';fill:#000000;fill-opacity:1;stroke:none;stroke-width:1.06667"
           x="408.87259"
           y="526.54285"
           id="text3066"><tspan
             id="tspan3064"
             x="408.87259"
             y="526.54285"
             style="font-size:8.24175px;line-height:1.25;stroke-width:1.06667">7</tspan></text></g><text
         xml:space="preserve"
         style="font-style:normal;font-weight:normal;font-size:12.8px;line-height:0%;font-family:'Arial Black';display:inline;fill:#000000;fill-opacity:1;stroke:none;stroke-width:1.06667"
         x="543.92566"
         y="570.12531"
         id="text3090"><tspan
           id="tspan3088"
           x="543.92566"
           y="570.12531"
           style="font-size:12.8px;line-height:1.25;stroke-width:1.06667">2</tspan></text><g
         id="g3100"><path
           id="path3092"
           d="m 248.82101,528.63582 c 0.37209,-0.16084 0.74521,-0.32494 1.11729,-0.43829 0.3721,-0.11444 0.74419,-0.18136 1.11731,-0.18136 0.37208,0 0.74418,0.0626 1.11729,0.18136 0.37209,0.11335 0.74418,0.27313 1.11627,0.43829 0.36902,0.15977 0.74521,0.32063 1.1173,0.43398 0.36902,0.11443 0.74521,0.18136 1.1173,0.18136 0.36798,0 0.7452,-0.0637 1.1173,-0.18136 0.36799,-0.11335 0.74418,-0.27421 1.11729,-0.43398"
           style="display:inline;fill:none;stroke:#000000;stroke-width:1.05194;stroke-linecap:round;stroke-linejoin:round" /><path
           id="path3094"
           d="m 248.95271,528.0566 -2.69973,17.30026 v 0.25814 0"
           style="display:inline;fill:none;stroke:#000000;stroke-width:1.06667;stroke-linecap:round;stroke-linejoin:round" /><path
           id="path3096"
           d="m 247.55645,536.97713 c 0.384,-0.15787 0.77546,-0.3168 1.16266,-0.4288 0.38294,-0.11307 0.77547,-0.1792 1.16267,-0.1792 0.38293,0 0.7744,0.0619 1.16267,0.1792 0.3872,0.112 0.7744,0.27093 1.16266,0.4288 0.3872,0.15893 0.7744,0.3168 1.1616,0.43307 0.38827,0.1088 0.77547,0.17493 1.16267,0.17493 0.38827,0 0.77547,-0.0619 1.16267,-0.17493 0.3872,-0.112 0.77546,-0.27094 1.16266,-0.43307"
           style="display:inline;fill:none;stroke:#000000;stroke-width:1.06667;stroke-linecap:round;stroke-linejoin:round" /><path
           id="path3098"
           d="m 257.91421,528.76576 -1.03946,7.96852 v 0.11982 0"
           style="display:inline;fill:none;stroke:#000000;stroke-width:1.0241;stroke-linecap:round" /></g><g
         id="g3111"><path
           id="path3102"
           d="m 248.82101,690.78595 c 0.37209,-0.16084 0.74521,-0.32494 1.11729,-0.43829 0.3721,-0.11443 0.74419,-0.18136 1.11731,-0.18136 0.37208,0 0.74418,0.0626 1.11729,0.18136 0.37209,0.11335 0.74418,0.27313 1.11627,0.43829 0.36902,0.15978 0.74521,0.32063 1.1173,0.43399 0.36902,0.11443 0.74521,0.18135 1.1173,0.18135 0.36798,0 0.7452,-0.0637 1.1173,-0.18135 0.36799,-0.11336 0.74418,-0.27421 1.11729,-0.43399"
           style="display:inline;fill:none;stroke:#000000;stroke-width:1.05194;stroke-linecap:round;stroke-linejoin:round" /><path
           id="path3105"
           d="m 248.95271,690.20673 -2.69973,17.30027 v 0.25813 0"
           style="display:inline;fill:none;stroke:#000000;stroke-width:1.06667;stroke-linecap:round;stroke-linejoin:round" /><path
           id="path3107"
           d="m 247.55645,699.12726 c 0.384,-0.15786 0.77546,-0.3168 1.16266,-0.4288 0.38294,-0.11306 0.77547,-0.1792 1.16267,-0.1792 0.38293,0 0.7744,0.0619 1.16267,0.1792 0.3872,0.112 0.7744,0.27094 1.16266,0.4288 0.3872,0.15894 0.7744,0.3168 1.1616,0.43307 0.38827,0.1088 0.77547,0.17493 1.16267,0.17493 0.38827,0 0.77547,-0.0619 1.16267,-0.17493 0.3872,-0.112 0.77546,-0.27093 1.16266,-0.43307"
           style="display:inline;fill:none;stroke:#000000;stroke-width:1.06667;stroke-linecap:round;stroke-linejoin:round" /><path
           id="path3109"
           d="m 257.91421,690.91589 -1.03946,7.96853 v 0.11981 0"
           style="display:inline;fill:none;stroke:#000000;stroke-width:1.0241;stroke-linecap:round" /></g></g></g><g
     transform="translate(363.35428,-208.73025)"
     id="SpeedbojeKlasse7" opacity="0.2"
     style="display:inline;enable-background:new"><path
       id="path2174"
       d="m 411.08738,540.47244 c 0,-3.68456 -2.98553,-6.67793 -6.67793,-6.67793 -3.6831,0 -6.67794,2.98671 -6.67794,6.67793 0,3.68455 2.9874,6.67793 6.67794,6.67793 3.68495,0 6.67793,-2.9867 6.67793,-6.67793 z"
       style="fill:#0000ff;fill-opacity:1;stroke:#0000ff;stroke-width:1.76224" /><g
       style="fill:none;stroke:#0000ff"
       id="g2184"><path
         id="path2176"
         d="m 407.51083,519.18039 c 0.37208,-0.16084 0.7452,-0.32493 1.11729,-0.43829 0.37209,-0.11443 0.74418,-0.18135 1.1173,-0.18135 0.37208,0 0.74418,0.0626 1.11729,0.18135 0.3721,0.11336 0.74418,0.27313 1.11628,0.43829 0.36901,0.15978 0.7452,0.32063 1.1173,0.43399 0.36901,0.11443 0.7452,0.18135 1.11729,0.18135 0.36799,0 0.7452,-0.0637 1.1173,-0.18135 0.36799,-0.11336 0.74418,-0.27421 1.11729,-0.43399"
         style="fill:none;stroke:#0000ff;stroke-width:1.05194;stroke-linecap:round;stroke-linejoin:round" /><path
         id="path2178"
         d="m 407.64253,518.60117 -2.69974,17.30027 v 0.25813 0"
         style="fill:none;stroke:#0000ff;stroke-width:1.06667;stroke-linecap:round;stroke-linejoin:round" /><path
         id="path2180"
         d="m 406.24626,527.52171 c 0.384,-0.15787 0.77547,-0.3168 1.16267,-0.4288 0.38293,-0.11307 0.77546,-0.1792 1.16266,-0.1792 0.38294,0 0.7744,0.0619 1.16267,0.1792 0.3872,0.112 0.7744,0.27093 1.16267,0.4288 0.3872,0.15893 0.7744,0.3168 1.1616,0.43306 0.38826,0.1088 0.77546,0.17494 1.16266,0.17494 0.38827,0 0.77547,-0.0619 1.16267,-0.17494 0.3872,-0.112 0.77547,-0.27093 1.16267,-0.43306"
         style="fill:none;stroke:#0000ff;stroke-width:1.06667;stroke-linecap:round;stroke-linejoin:round" /><path
         id="path2182"
         d="m 416.60402,519.31034 -1.03945,7.96852 v 0.11982 0"
         style="fill:none;stroke:#0000ff;stroke-width:1.0241;stroke-linecap:round" /></g><text
       xml:space="preserve"
       style="font-style:normal;font-weight:normal;font-size:12.8px;line-height:0%;font-family:'Arial Black';fill:#000000;fill-opacity:1;stroke:none;stroke-width:1.06667"
       x="408.87259"
       y="526.54285"
       id="text2188"><tspan
         id="tspan2186"
         x="408.87259"
         y="526.54285"
         style="font-size:8.24175px;line-height:1.25;stroke-width:1.06667">8</tspan></text></g><g
     transform="translate(-215.4445,-435.39547)"
     style="display:inline"
     id="Klasse7_Moewe"><path
       id="path3412"
       d="m 169.62736,612.62914 c 24.84113,0 89.24189,-11.35353 146.67601,41.98149 57.43413,53.33503 155.67999,96.11821 231.70398,112.99437 76.02399,16.87616 264.8375,6.50695 375.79023,-13.88174 57.28102,-10.52596 101.78772,-43.30709 102.26212,-106.34226 0.9337,-124.03048 -14.6153,-144.77353 -49.21484,-156.10792 -158.20113,-19.56511 -424.33618,-41.11217 -482.37979,7.7748 -51.32798,57.86226 -135.35162,73.97625 -135.35162,46.10337 0,-25.07871 37.71236,-25.07871 37.71236,0 0,15.27351 4.50285,2.23649 -7.50894,42.39551 -12.01177,40.15901 -22.66094,110.33334 -22.66348,136.63137 -0.002,25.87021 23.42929,47.36862 49.14588,47.36862 25.7166,0 46.34868,-21.00001 46.34868,-47.33333 0,-26.33332 -20.63208,-45.5604 -46.34868,-45.5604 -25.71659,0 -49.14334,19.22708 -49.14334,45.52511 0,26.29804 23.42675,47.36862 49.14334,47.36862 25.7166,0 46.51091,-21.46312 46.34868,-47.36862 -0.16223,-25.90549 4.92678,-70.10057 17.38624,-118.46755 12.45945,-48.20475 18.66063,-114.73813 68.6136,-114.73813 49.95061,0 59.02561,53.85279 65.73349,150.14486 6.70788,96.29208 27.13872,126.48769 66.48555,125.64397 42.59874,-0.91346 46.95354,-27.75793 48.21548,-42.62942 1.26196,-14.87148 -10.46804,-52.94142 -48.2214,-52.94142 -37.75337,0 -50.43151,34.87616 -49.92097,52.94142 0.51055,18.06526 15.98209,43.47314 49.92097,43.47314 33.93888,0 61.30131,-17.97992 64.3624,-126.48769 1.67439,-59.35272 17.37605,-154.5707 68.29187,-154.5707 50.91582,0 57.35361,74.71332 68.82118,103.02657 16.31212,40.2744 29.18695,62.26804 41.92098,70.27814 12.73404,8.0101 35.57642,11.41242 49.73352,11.41242 13.98987,0 43.19044,-7.59648 43.19044,7.58718"
       style="display:inline;fill:none;stroke:#000000;stroke-width:1.06583;stroke-linecap:round;stroke-linejoin:round;stroke-miterlimit:4;stroke-dasharray:4.26331, 4.26331;stroke-dashoffset:0;stroke-opacity:1;marker-start:none;marker-mid:url(#Arrow1Lstart);marker-end:none" /><path
       id="path3414"
       d="m 1016.6813,678.85092 c 0,0 -181.3203,-0.1979 -143.4035,-0.1979 71.6535,0 43.37201,-5.12794 33.80349,-14.92002 -54.82378,-109.21767 -53.82327,-128.11472 -94.23644,-128.54725 -40.41316,-0.43253 -54.15395,89.9612 -59.26009,117.67987 -5.10615,27.71868 -27.71369,70.512 -73.22385,71.26624 -45.51017,0.75424 -61.12392,-22.827 -73.32725,-69.14875 -12.20332,-46.32174 -18.34295,-118.97338 -59.02631,-119.79736 -40.68336,-0.82398 -47.94738,64.87453 -57.36926,103.63304 -22.45903,90.3578 -20.05701,91.96941 -75.1112,89.98034 -55.05419,-1.98908 -98.67296,-85.72958 -170.1215,-85.55767"
       style="display:inline;fill:none;stroke:#000000;stroke-width:1.06667;stroke-linecap:round;stroke-linejoin:round;stroke-miterlimit:4;stroke-dashoffset:0;stroke-opacity:1;marker-start:none;marker-mid:url(#Arrow1Lstart);marker-end:none" /><path
       id="path3416"
       d="m 462.14795,724.21342 c 0,-26.33332 -20.63208,-45.5604 -46.34868,-45.5604 -25.71661,0 -49.14334,19.82708 -49.14334,45.5604 0,26.47021 22.66094,47.33333 49.14334,47.33333 26.46995,0 46.34868,-21.46312 46.34868,-47.33333 z"
       style="display:inline;fill:none;stroke:#000000;stroke-width:1.06667;stroke-linecap:round;stroke-linejoin:round;stroke-miterlimit:4;stroke-dasharray:4.26667, 4.26667;stroke-dashoffset:3.8;stroke-opacity:1;marker-start:none;marker-mid:url(#Arrow1Lstart);marker-end:none" /><text
       id="text3418"
       y="876.11395"
       x="243.3893"
       style="font-style:normal;font-variant:normal;font-weight:normal;font-stretch:normal;font-size:12.8px;line-height:0%;font-family:Verdana;-inkscape-font-specification:Verdana;display:inline;opacity:0.99;fill:#e6e6e6;fill-opacity:1;stroke:none;stroke-width:1.06667"
       xml:space="preserve"><tspan
         id="tspan3420"
         y="876.11395"
         x="243.3893"
         style="font-style:normal;font-variant:normal;font-weight:normal;font-stretch:normal;font-size:19.2px;line-height:1.25;font-family:Verdana;-inkscape-font-specification:Verdana;fill:#000000;stroke-width:1.06667">Ablegen - Startlinie - in den Parcours, d.h. innen durch die Tore 1 - 2 - 3 - 4 -</tspan><tspan
         id="tspan3422"
         y="900.11395"
         x="243.3893"
         style="font-style:normal;font-variant:normal;font-weight:normal;font-stretch:normal;font-size:19.2px;line-height:1.25;font-family:Verdana;-inkscape-font-specification:Verdana;fill:#000000;stroke-width:1.06667">rückwärts durch das Tor 5 - vorwärts wieder in den Parcours, d.h. außen um Tor 4 -</tspan><tspan
         id="tspan3424"
         y="924.11395"
         x="243.3893"
         style="font-style:normal;font-variant:normal;font-weight:normal;font-stretch:normal;font-size:19.2px;line-height:1.25;font-family:Verdana;-inkscape-font-specification:Verdana;fill:#000000;stroke-width:1.06667">schnelle Umkreisung des Tores 3 (das Tor 3 bleibt an der Steuerbordseite!) - </tspan><tspan
         y="948.11395"
         x="243.3893"
         style="font-style:normal;font-variant:normal;font-weight:normal;font-stretch:normal;font-size:19.2px;line-height:1.25;font-family:Verdana;-inkscape-font-specification:Verdana;fill:#000000;stroke-width:1.06667"
         id="tspan3456">außen um Tor 2 - schnelle Umkreisung des Tores 1 (das Tor 1 bleibt an der Steuerbordseite!) -</tspan><tspan
         id="tspan3430"
         y="972.11395"
         x="243.3893"
         style="font-style:normal;font-variant:normal;font-weight:normal;font-stretch:normal;font-size:19.2px;line-height:1.25;font-family:Verdana;-inkscape-font-specification:Verdana;fill:#000000;stroke-width:1.06667">Schikane an der Tonne 6 - Temporunde: <tspan
   id="tspan3428"
   style="font-style:normal;font-variant:normal;font-weight:normal;font-stretch:normal;font-size:19.2px;font-family:Verdana;-inkscape-font-specification:Verdana;fill:#000000;stroke-width:1.06667">außen</tspan> an den Toren 2 und 4, um die Tonne 7,</tspan><tspan
         y="996.11395"
         x="243.3893"
         style="font-style:normal;font-variant:normal;font-weight:normal;font-stretch:normal;font-size:19.2px;line-height:1.25;font-family:Verdana;-inkscape-font-specification:Verdana;fill:#000000;stroke-width:1.06667"
         id="tspan3652">zwischen Tor 5 und Tonne 8, außen an Tor 3 vorbei und innen durch das Tor 1 -</tspan><tspan
         y="1020.114"
         x="243.3893"
         style="font-style:normal;font-variant:normal;font-weight:normal;font-stretch:normal;font-size:19.2px;line-height:1.25;font-family:Verdana;-inkscape-font-specification:Verdana;fill:#000000;stroke-width:1.06667"
         id="tspan3656">Ziellinie - anlegen.</tspan></text><g
       transform="translate(-74.061063,0.49180779)"
       id="g3434"><text
         xml:space="preserve"
         style="font-style:normal;font-weight:bold;font-size:12.8px;line-height:0%;font-family:Verdana;fill:#000000;fill-opacity:1;stroke:none;stroke-width:1.06667"
         x="778.96606"
         y="434.23663"
         id="text3436"
         transform="rotate(1.8931656)"><tspan
           id="tspan3438"
           x="778.96606"
           y="434.23663"
           style="font-size:13.8667px;line-height:1.25;stroke-width:1.06667">Tempo -</tspan></text><text
         xml:space="preserve"
         style="font-style:normal;font-weight:bold;font-size:12.8px;line-height:0%;font-family:Verdana;fill:#000000;fill-opacity:1;stroke:none;stroke-width:1.06667"
         x="845.87933"
         y="435.7533"
         id="text3440"
         transform="rotate(1.8931656)"><tspan
           id="tspan3442"
           x="845.87933"
           y="435.7533"
           style="font-size:13.8667px;line-height:1.25;stroke-width:1.06667">Runde</tspan></text></g><text
       id="text3444"
       y="328.00241"
       x="595.58246"
       style="font-style:normal;font-variant:normal;font-weight:bold;font-stretch:normal;font-size:12.8px;line-height:0%;font-family:Verdana;-inkscape-font-specification:'Verdana Bold';text-align:center;text-anchor:middle;display:inline;fill:#000000;fill-opacity:1;stroke:none;stroke-width:1.06667"
       xml:space="preserve"><tspan
         style="font-style:normal;font-variant:normal;font-weight:bold;font-stretch:normal;font-size:38.4px;line-height:1.25;font-family:Verdana;-inkscape-font-specification:'Verdana Bold';text-align:center;text-anchor:middle;stroke-width:1.06667"
         y="328.00241"
         x="595.58246"
         id="tspan3446">DMYV-Jugend</tspan><tspan
         id="tspan3448"
         style="font-style:normal;font-variant:normal;font-weight:bold;font-stretch:normal;font-size:38.4px;line-height:1.25;font-family:Verdana;-inkscape-font-specification:'Verdana Bold';text-align:center;text-anchor:middle;stroke-width:1.06667"
         y="376.00241"
         x="595.58246">Motorboot-Slalom</tspan><tspan
         style="font-style:normal;font-variant:normal;font-weight:bold;font-stretch:normal;font-size:38.4px;line-height:1.25;font-family:Verdana;-inkscape-font-specification:'Verdana Bold';text-align:center;text-anchor:middle;stroke-width:1.06667"
         id="tspan3450"
         y="424.00241"
         x="595.58246">Klasse 7</tspan></text><text
       transform="rotate(-30.000011)"
       id="text2735-7-9"
       y="483.21786"
       x="-56.179955"
       style="font-style:normal;font-weight:bold;font-size:12.8px;line-height:0%;font-family:Verdana;text-align:center;text-anchor:middle;display:inline;fill:#000000;fill-opacity:1;stroke:none;stroke-width:1.06667"
       xml:space="preserve"><tspan
         y="483.21786"
         x="-56.179955"
         id="tspan2737-4-8"
         style="font-size:29.8666px;line-height:1.25;stroke-width:1.06667">Möwe-Parcour</tspan></text></g><g
     id="Export_Area"
     style="display:inline;opacity:1"
     transform="translate(-180.81244,-194.48774)"><path
       style="display:inline;opacity:0.5;fill:none;fill-opacity:1;fill-rule:nonzero;stroke:#000080;stroke-width:2.13333;stroke-linecap:round;stroke-linejoin:miter;stroke-miterlimit:4;stroke-dasharray:4.26667, 8.53333;stroke-dashoffset:0;stroke-opacity:1"
       d="m 181.87911,199.201 c 0,117.13405 0,234.2681 0,351.40216 4.37991,6.41891 13.1037,2.14473 19.59162,3.37445 276.05854,0 552.11708,0 828.17557,0 6.2953,-4.46595 2.1035,-13.36114 3.3095,-19.97654 0,-111.60002 0,-223.20005 0,-334.80007 -4.3799,-6.41892 -13.1037,-2.14473 -19.5916,-3.37446 -276.05857,0 -552.11711,0 -828.17565,0 -1.10314,1.12482 -2.20628,2.24965 -3.30944,3.37446 z"
       id="rect4816" /><g
       id="g2" /><g
       id="g3" /></g></svg>
